# Blender 4.0.1
# www.blender.org
mtllib wskazówkaD.mtl
o Plane.005
v -0.026019 2.258914 -1.190657
v 0.026019 2.258914 -1.190657
v 0.000000 3.024221 -1.190657
v 0.000000 2.258914 -1.190657
v 0.000000 3.024221 -1.210277
v 0.026019 2.258914 -1.210277
v 0.000000 2.258914 -1.210277
v -0.026019 2.258914 -1.210277
v 0.025980 2.264859 -1.190657
v 0.000000 2.264863 -1.190657
v -0.025980 2.264859 -1.190657
v 0.025980 2.264859 -1.210277
v 0.000000 2.264863 -1.210277
v -0.025980 2.264859 -1.210277
v -0.021733 2.922007 -1.190657
v -0.021733 2.922007 -1.210277
v 0.021733 2.922007 -1.190657
v 0.000000 2.922501 -1.190657
v 0.021733 2.922007 -1.210277
v 0.000000 2.922501 -1.210277
v 0.000000 3.024221 -1.194654
v 0.026019 2.258914 -1.194654
v 0.021692 2.928254 -1.194654
v -0.021692 2.928254 -1.194654
v -0.026019 2.258914 -1.194654
v 0.000000 2.258914 -1.194654
v -0.025980 2.264859 -1.194654
v 0.025980 2.264859 -1.194654
v 0.021733 2.922007 -1.194654
v -0.021733 2.922007 -1.194654
v 0.000000 3.024221 -1.207791
v 0.026019 2.258914 -1.207791
v 0.000000 2.258914 -1.207791
v -0.025980 2.264859 -1.207791
v 0.025980 2.264859 -1.207791
v 0.021733 2.922007 -1.207791
v -0.021733 2.922007 -1.207791
v 0.021692 2.928254 -1.207791
v -0.021692 2.928254 -1.207791
v -0.026019 2.258914 -1.207791
v -0.001117 2.258914 -1.190657
v -0.001785 3.020136 -1.190657
v -0.001117 2.258914 -1.210277
v -0.001785 3.020136 -1.210277
v -0.001116 2.264863 -1.210277
v -0.001116 2.264863 -1.190657
v -0.000933 2.922480 -1.190657
v -0.000933 2.922480 -1.210277
v -0.001117 2.258914 -1.194654
v -0.001785 3.020136 -1.194654
v -0.001117 2.258914 -1.207791
v -0.001785 3.020136 -1.207791
v 0.001671 3.020397 -1.190657
v 0.001046 2.258914 -1.190657
v 0.001671 3.020397 -1.210277
v 0.001046 2.258914 -1.210277
v 0.001044 2.264863 -1.210277
v 0.001044 2.264863 -1.190657
v 0.000874 2.922481 -1.190657
v 0.000874 2.922481 -1.210277
v 0.001671 3.020397 -1.194654
v 0.001046 2.258914 -1.194654
v 0.001671 3.020397 -1.207791
v 0.001046 2.258914 -1.207791
v -0.041250 2.929827 -1.190657
v -0.041276 2.929088 -1.191428
v -0.041389 2.929309 -1.190883
v 0.041276 2.929088 -1.191428
v 0.041250 2.929827 -1.190657
v 0.041389 2.929309 -1.190883
v -0.021693 2.926547 -1.191188
v -0.021692 2.930606 -1.190657
v -0.021692 2.928443 -1.190812
v 0.021692 2.930606 -1.190657
v 0.021693 2.926547 -1.191188
v 0.021692 2.928443 -1.190812
v 0.000000 2.931104 -1.190657
v 0.000000 2.926399 -1.190657
v 0.000000 2.928752 -1.190657
v -0.021692 2.930606 -1.210277
v -0.021693 2.926547 -1.209746
v -0.021692 2.928443 -1.210121
v -0.041276 2.929088 -1.209506
v -0.041250 2.929827 -1.210277
v -0.041389 2.929309 -1.210051
v 0.041276 2.929088 -1.209506
v 0.041250 2.929827 -1.210277
v 0.041389 2.929309 -1.210051
v 0.021692 2.930606 -1.210277
v 0.021693 2.926547 -1.209746
v 0.021692 2.928443 -1.210121
v 0.000000 2.926399 -1.210277
v 0.000000 2.931104 -1.210277
v 0.000000 2.928752 -1.210277
v -0.041253 2.929821 -1.194654
v -0.041276 2.929088 -1.194654
v -0.041390 2.929307 -1.194654
v 0.041276 2.929088 -1.194654
v 0.041253 2.929821 -1.194654
v 0.041390 2.929307 -1.194654
v 0.041253 2.929821 -1.207791
v 0.041276 2.929088 -1.207791
v 0.041390 2.929307 -1.207791
v -0.041253 2.929821 -1.207791
v -0.041276 2.929088 -1.207791
v -0.041390 2.929307 -1.207791
v -0.000932 2.926378 -1.190657
v -0.000954 2.931082 -1.190657
v -0.000938 2.928730 -1.190657
v -0.000954 2.931082 -1.210277
v -0.000932 2.926378 -1.210277
v -0.000938 2.928730 -1.210277
v 0.000873 2.926379 -1.190657
v 0.000893 2.931084 -1.190657
v 0.000878 2.928732 -1.190657
v 0.000893 2.931084 -1.210277
v 0.000873 2.926379 -1.210277
v 0.000878 2.928732 -1.210277
vn -0.0000 -0.0000 1.0000
vn -0.0000 -0.3116 0.9502
vn 0.9333 -0.1099 0.3419
vn 0.9351 0.0060 0.3543
vn -0.6650 0.1397 -0.7337
vn -0.5670 0.2478 -0.7856
vn -0.0008 -0.0088 -1.0000
vn -0.0013 -0.0420 -0.9991
vn 0.6179 -0.6786 0.3972
vn 0.8113 -0.1321 0.5696
vn 0.9924 -0.1218 -0.0156
vn 0.7013 -0.7114 -0.0458
vn -0.0000 -0.0000 -1.0000
vn 0.9351 0.0060 -0.3543
vn 0.9333 -0.1099 -0.3419
vn -0.0000 -0.3116 -0.9502
vn -0.9484 0.3170 -0.0000
vn -0.9163 0.4004 -0.0000
vn -0.9484 0.3170 -0.0001
vn 0.7001 -0.7093 0.0827
vn 0.9915 -0.1264 0.0296
vn 0.8322 -0.1273 -0.5397
vn 0.6271 -0.6881 -0.3650
vn -0.0000 1.0000 -0.0000
vn -0.0000 0.3575 -0.9339
vn 1.0000 0.0065 -0.0000
vn 0.9931 -0.1169 -0.0000
vn -0.8322 -0.1273 -0.5397
vn -0.0072 -0.0057 -1.0000
vn -0.0033 0.0156 -0.9999
vn -0.9219 0.0180 -0.3869
vn -0.0000 -1.0000 -0.0000
vn -0.9931 -0.1169 -0.0000
vn -0.9333 -0.1099 -0.3419
vn 0.5670 0.2478 -0.7856
vn 0.6650 0.1397 -0.7337
vn 0.0013 -0.0420 -0.9991
vn 0.0008 -0.0088 -1.0000
vn 1.0000 0.0067 -0.0007
vn 0.9219 0.0180 -0.3869
vn -1.0000 0.0065 -0.0000
vn -0.9351 0.0060 -0.3543
vn 0.0033 0.0156 -0.9999
vn -0.0033 0.0156 0.9999
vn 0.0033 0.0156 0.9999
vn 0.9221 0.0179 0.3865
vn -0.0000 0.3575 0.9339
vn 0.0008 -0.0088 1.0000
vn 0.5670 0.2478 0.7856
vn -0.5670 0.2478 0.7856
vn -0.0008 -0.0088 1.0000
vn 0.0072 -0.0057 -1.0000
vn -1.0000 0.0067 -0.0007
vn -0.9351 0.0060 0.3543
vn -0.9221 0.0179 0.3865
vn -1.0000 0.0067 0.0004
vn 0.0072 -0.0057 1.0000
vn 1.0000 0.0067 0.0004
vn -0.9333 -0.1099 0.3419
vn -0.8113 -0.1321 0.5696
vn -0.0072 -0.0057 1.0000
vn 0.0013 -0.0420 0.9991
vn 0.6651 0.1397 0.7336
vn -0.6651 0.1397 0.7336
vn 0.9163 0.4004 -0.0000
vn 0.9484 0.3170 -0.0000
vn 0.9484 0.3170 -0.0001
vn -0.9924 -0.1218 -0.0156
vn -0.9915 -0.1264 0.0296
vn -0.7013 -0.7114 -0.0458
vn -0.7001 -0.7093 0.0827
vn -0.6271 -0.6881 -0.3650
vn -0.6179 -0.6786 0.3972
vn -0.0013 -0.0420 0.9991
vn -0.9049 0.0298 0.4245
vn -0.0138 -0.1459 0.9892
vn 0.0137 -0.1459 0.9892
vn 0.9049 0.0298 0.4245
vn -0.0048 -0.0302 0.9995
vn 0.0048 -0.0302 0.9995
vn -0.9049 0.0298 -0.4245
vn -0.0138 -0.1459 -0.9892
vn 0.0137 -0.1459 -0.9892
vn 0.9049 0.0298 -0.4245
vn -0.0048 -0.0302 -0.9995
vn 0.0048 -0.0302 -0.9995
vn -0.9999 -0.0124 0.0001
vn 0.9999 -0.0124 -0.0002
vn -0.9999 -0.0124 -0.0002
vn 0.9999 -0.0124 0.0001
vt 0.232801 0.699163
vt 0.234004 0.699331
vt 0.222848 0.735659
vt 0.221706 0.735739
vt 0.233018 0.695563
vt 0.234182 0.695532
vt 0.234173 0.697498
vt 0.232923 0.697421
vt 0.254107 0.741654
vt 0.254270 0.818246
vt 0.233470 0.817288
vt 0.240565 0.772964
vt 0.052417 0.762429
vt 0.069993 0.735960
vt 0.070933 0.739157
vt 0.051394 0.766364
vt 0.079245 0.802317
vt 0.078629 0.842300
vt 0.077481 0.841768
vt 0.077984 0.802245
vt 0.079690 0.798446
vt 0.079453 0.800440
vt 0.078122 0.800285
vt 0.078406 0.798241
vt 0.064866 0.602569
vt 0.053642 0.679512
vt 0.042587 0.677423
vt 0.058752 0.579442
vt 0.232272 0.902873
vt 0.226031 0.867095
vt 0.227217 0.865672
vt 0.232879 0.900172
vt 0.256251 0.818231
vt 0.256192 0.821919
vt 0.254380 0.821742
vt 0.077662 0.844073
vt 0.076063 0.843090
vt 0.255294 0.738597
vt 0.239480 0.772655
vt 0.232384 0.817191
vt 0.231545 0.817071
vt 0.238038 0.773028
vt 0.076063 0.802125
vt 0.076333 0.800048
vt 0.076722 0.797947
vt 0.086191 0.756208
vt 0.087388 0.757553
vt 0.253465 0.824873
vt 0.233429 0.899766
vt 0.228355 0.865654
vt 0.233037 0.820678
vt 0.225265 0.866482
vt 0.225914 0.864937
vt 0.088010 0.755411
vt 0.088588 0.757429
vt 0.231302 0.818789
vt 0.231119 0.820400
vt 0.080101 0.684170
vt 0.079976 0.686010
vt 0.079803 0.687730
vt 0.071527 0.735613
vt 0.055835 0.683899
vt 0.077914 0.685830
vt 0.077738 0.687531
vt 0.056216 0.687364
vt 0.056877 0.680311
vt 0.078046 0.684008
vt 0.233247 0.819038
vt 0.231961 0.820497
vt 0.237810 0.771372
vt 0.227479 0.659731
vt 0.080466 0.636033
vt 0.081719 0.633217
vt 0.229021 0.657108
vt 0.078895 0.687627
vt 0.222868 0.738553
vt 0.072266 0.738595
vt 0.228622 0.660080
vt 0.230280 0.658008
vt 0.079018 0.635419
vt 0.079196 0.684118
vt 0.068938 0.735579
vt 0.052109 0.761903
vt 0.237092 0.695538
vt 0.236919 0.697690
vt 0.236685 0.699662
vt 0.066005 0.606949
vt 0.224377 0.737645
vt 0.052837 0.683322
vt 0.087899 0.624849
vt 0.235914 0.649146
vt 0.076902 0.747676
vt 0.075577 0.748357
vt 0.229707 0.748012
vt 0.237171 0.650250
vt 0.052909 0.687522
vt 0.050288 0.765963
vt 0.041908 0.786824
vt 0.042450 0.687651
vt 0.246603 0.696276
vt 0.246443 0.698524
vt 0.246249 0.700617
vt 0.080488 0.632421
vt 0.086660 0.623917
vt 0.043073 0.787288
vt 0.231200 0.746919
vt 0.041908 0.681503
vt 0.066053 0.602321
vt 0.060049 0.579115
vt 0.238709 0.770980
vt 0.253792 0.738391
vt 0.253685 0.741127
vt 0.255453 0.825413
vt 0.233793 0.903063
vt 0.066397 0.606481
vt 0.052792 0.684004
vt 0.042443 0.684046
vt 0.232175 0.818901
vt 0.079043 0.685929
vt 0.077917 0.635606
vt 0.066132 0.606758
vt 0.078489 0.635507
vt 0.069486 0.735779
vt 0.052203 0.762114
vt 0.078653 0.684069
vt 0.078481 0.685880
vt 0.078349 0.687580
vt 0.253977 0.741436
vt 0.240001 0.772802
vt 0.227764 0.865665
vt 0.233246 0.899946
vt 0.232893 0.817241
vt 0.232707 0.818969
vt 0.232466 0.820578
vt 0.065583 0.602412
vt 0.232854 0.902989
vt 0.059485 0.579256
vt 0.050956 0.766214
vt 0.042566 0.787086
vt 0.254378 0.738429
s 1
f 58/1/1 54/2/2 2/3/3 9/4/4
f 46/5/1 41/6/2 4/7/2 10/8/1
f 84/9/5 44/10/6 110/11/7 80/12/8
f 68/13/9 75/14/10 23/15/11 98/16/12
f 57/17/13 12/18/14 6/19/15 56/20/16
f 45/21/13 13/22/13 7/23/16 43/24/16
f 95/25/17 50/26/18 52/27/18 104/28/19
f 102/29/20 38/30/21 90/31/22 86/32/23
f 52/33/18 31/34/24 5/35/25 44/10/6
f 35/36/26 32/37/27 6/19/15 12/18/14
f 104/38/19 52/33/18 44/10/6 84/9/5
f 81/39/28 111/40/29 48/41/30 16/42/31
f 64/43/32 33/44/32 7/23/16 56/20/16
f 51/45/32 40/46/33 8/47/34 43/24/16
f 55/48/35 87/49/36 89/50/37 116/51/38
f 38/30/21 36/52/39 19/53/40 90/31/22
f 40/46/33 34/54/41 14/55/42 8/47/34
f 36/52/39 35/36/26 12/18/14 19/53/40
f 48/41/30 20/56/13 13/22/13 45/21/13
f 60/57/43 19/53/40 12/18/14 57/17/13
f 47/58/44 46/5/1 10/8/1 18/59/1
f 59/60/45 58/1/1 9/4/4 17/61/46
f 3/62/47 77/63/1 114/64/48 53/65/49
f 42/66/50 108/67/51 77/63/1 3/62/47
f 5/35/25 55/48/35 116/51/38 93/68/13
f 44/10/6 5/35/25 93/68/13 110/11/7
f 117/69/52 90/31/22 19/53/40 60/57/43
f 34/54/41 37/70/53 16/42/31 14/55/42
f 11/71/54 15/72/55 30/73/56 27/74/41
f 113/75/57 59/60/45 17/61/46 75/14/10
f 17/61/46 9/4/4 28/76/26 29/77/58
f 1/78/59 11/71/54 27/74/41 25/79/33
f 71/80/60 15/72/55 47/58/44 107/81/61
f 53/65/49 114/64/48 74/82/62 69/83/63
f 41/6/2 1/78/59 25/79/33 49/84/32
f 54/2/2 4/7/2 26/85/32 62/86/32
f 75/14/10 17/61/46 29/77/58 23/15/11
f 65/87/64 42/66/50 50/26/18 95/25/17
f 9/4/4 2/3/3 22/88/27 28/76/26
f 42/66/50 3/62/47 21/89/24 50/26/18
f 27/74/41 30/73/56 37/90/53 34/91/41
f 23/15/11 29/77/58 36/92/39 38/93/21
f 29/77/58 28/76/26 35/94/26 36/92/39
f 25/79/33 27/74/41 34/91/41 40/95/33
f 61/96/65 99/97/66 101/98/67 63/99/65
f 49/84/32 25/79/33 40/95/33 51/100/32
f 62/86/32 26/85/32 33/101/32 64/102/32
f 30/73/56 24/103/68 39/104/69 37/90/53
f 98/16/12 23/15/11 38/93/21 102/105/20
f 28/76/26 22/88/27 32/106/27 35/94/26
f 50/26/18 21/89/24 31/107/24 52/27/18
f 24/103/68 96/108/70 105/109/71 39/104/69
f 26/85/32 49/84/32 51/100/32 33/101/32
f 53/65/49 69/83/63 99/97/66 61/96/65
f 4/7/2 41/6/2 49/84/32 26/85/32
f 39/110/69 105/111/71 83/112/72 81/39/28
f 15/72/55 71/80/60 24/103/68 30/73/56
f 15/72/55 11/71/54 46/5/1 47/58/44
f 16/42/31 48/41/30 45/21/13 14/55/42
f 33/44/32 51/45/32 43/24/16 7/23/16
f 63/113/65 101/114/67 87/49/36 55/48/35
f 37/70/53 39/110/69 81/39/28 16/42/31
f 14/55/42 45/21/13 43/24/16 8/47/34
f 71/80/60 66/115/73 96/108/70 24/103/68
f 11/71/54 1/78/59 41/6/2 46/5/1
f 22/88/27 62/86/32 64/102/32 32/106/27
f 21/116/24 61/96/65 63/99/65 31/117/24
f 2/3/3 54/2/2 62/86/32 22/88/27
f 3/62/47 53/65/49 61/96/65 21/116/24
f 111/40/29 92/118/13 20/56/13 48/41/30
f 107/81/61 47/58/44 18/59/1 78/119/1
f 18/59/1 10/8/1 58/1/1 59/60/45
f 20/56/13 60/57/43 57/17/13 13/22/13
f 31/34/24 63/113/65 55/48/35 5/35/25
f 32/37/27 64/43/32 56/20/16 6/19/15
f 92/118/13 117/69/52 60/57/43 20/56/13
f 13/22/13 57/17/13 56/20/16 7/23/16
f 78/119/1 18/59/1 59/60/45 113/75/57
f 10/8/1 4/7/2 54/2/2 58/1/1
f 72/120/74 65/87/64 67/121/75 73/122/76
f 73/122/76 67/121/75 66/115/73 71/80/60
f 69/83/63 74/82/62 76/123/77 70/124/78
f 70/124/78 76/123/77 75/14/10 68/13/9
f 108/67/51 72/120/74 73/122/76 109/125/79
f 109/125/79 73/122/76 71/80/60 107/81/61
f 114/64/48 77/63/1 79/126/1 115/127/80
f 115/127/80 79/126/1 78/119/1 113/75/57
f 81/39/28 83/112/72 85/128/81 82/129/82
f 82/129/82 85/128/81 84/9/5 80/12/8
f 86/32/23 90/31/22 91/130/83 88/131/84
f 88/131/84 91/130/83 89/50/37 87/49/36
f 111/40/29 81/39/28 82/129/82 112/132/85
f 112/132/85 82/129/82 80/12/8 110/11/7
f 117/69/52 92/118/13 94/133/13 118/134/86
f 118/134/86 94/133/13 93/68/13 116/51/38
f 96/108/70 66/115/73 67/121/75 97/135/87
f 97/135/87 67/121/75 65/87/64 95/25/17
f 102/29/20 86/32/23 88/131/84 103/136/88
f 103/136/88 88/131/84 87/49/36 101/114/67
f 105/109/71 96/108/70 97/135/87 106/137/89
f 106/137/89 97/135/87 95/25/17 104/28/19
f 68/13/9 98/16/12 100/138/90 70/124/78
f 70/124/78 100/138/90 99/97/66 69/83/63
f 98/16/12 102/105/20 103/139/88 100/138/90
f 100/138/90 103/139/88 101/98/67 99/97/66
f 83/112/72 105/111/71 106/140/89 85/128/81
f 85/128/81 106/140/89 104/38/19 84/9/5
f 77/63/1 108/67/51 109/125/79 79/126/1
f 79/126/1 109/125/79 107/81/61 78/119/1
f 92/118/13 111/40/29 112/132/85 94/133/13
f 94/133/13 112/132/85 110/11/7 93/68/13
f 74/82/62 114/64/48 115/127/80 76/123/77
f 76/123/77 115/127/80 113/75/57 75/14/10
f 90/31/22 117/69/52 118/134/86 91/130/83
f 91/130/83 118/134/86 116/51/38 89/50/37
f 65/87/64 72/120/74 108/67/51 42/66/50
