# Blender 4.0.1
# www.blender.org
mtllib wskazówkaM.mtl
o Plane.006
v 0.038527 2.290136 -1.186038
v 0.073349 2.311272 -1.189828
v -0.234977 2.780626 -1.184333
v 0.055938 2.300704 -1.187933
v -0.236446 2.779868 -1.202064
v 0.071879 2.310514 -1.207559
v 0.054468 2.299946 -1.205664
v 0.037057 2.289378 -1.203769
v 0.071063 2.314985 -1.189797
v 0.053676 2.304435 -1.187905
v 0.036292 2.293880 -1.186013
v 0.069593 2.314227 -1.207529
v 0.052206 2.303677 -1.205636
v 0.034823 2.293122 -1.203744
v -0.210665 2.707701 -1.183231
v -0.212135 2.706943 -1.200962
v -0.181579 2.725355 -1.186396
v -0.196310 2.716838 -1.184811
v -0.183049 2.724597 -1.204128
v -0.197780 2.716080 -1.202543
v -0.235276 2.780472 -1.187945
v 0.073049 2.311118 -1.193440
v -0.184280 2.729102 -1.189976
v -0.213312 2.711480 -1.186816
v 0.038227 2.289981 -1.189650
v 0.055638 2.300550 -1.191545
v 0.035993 2.293725 -1.189625
v 0.070764 2.314830 -1.193409
v -0.181879 2.725201 -1.190008
v -0.210965 2.707546 -1.186843
v -0.236260 2.779964 -1.199818
v 0.072065 2.310610 -1.205313
v 0.054654 2.300042 -1.203418
v 0.035009 2.293218 -1.201498
v 0.069779 2.314323 -1.205282
v -0.182863 2.724694 -1.201881
v -0.211949 2.707039 -1.198716
v -0.185264 2.728594 -1.201849
v -0.214296 2.710972 -1.198689
v 0.037243 2.289474 -1.201523
v 0.055190 2.300250 -1.187852
v -0.234618 2.777339 -1.184222
v 0.053720 2.299492 -1.205583
v -0.236088 2.776582 -1.201953
v 0.051460 2.303224 -1.205555
v 0.052929 2.303982 -1.187824
v -0.196926 2.716445 -1.184743
v -0.198396 2.715687 -1.202475
v 0.054891 2.300096 -1.191464
v -0.234918 2.777185 -1.187834
v 0.053906 2.299588 -1.203337
v -0.235902 2.776678 -1.199707
v -0.232405 2.778907 -1.184472
v 0.056638 2.301129 -1.188009
v -0.233874 2.778149 -1.202204
v 0.055168 2.300371 -1.205741
v 0.052905 2.304101 -1.205712
v 0.054375 2.304859 -1.187981
v -0.195718 2.717180 -1.184875
v -0.197188 2.716422 -1.202606
v -0.232704 2.778752 -1.188084
v 0.056338 2.300974 -1.191621
v -0.233688 2.778245 -1.199957
v 0.055354 2.300467 -1.203494
v -0.226698 2.704677 -1.181773
v -0.226492 2.704173 -1.182471
v -0.226611 2.704287 -1.181969
v -0.171251 2.737704 -1.188483
v -0.171491 2.738186 -1.187781
v -0.171219 2.737910 -1.187998
v -0.212404 2.710544 -1.183692
v -0.213906 2.713109 -1.183193
v -0.213096 2.711747 -1.183344
v -0.184875 2.730731 -1.186353
v -0.183372 2.728166 -1.186852
v -0.184064 2.729369 -1.186504
v -0.199580 2.722233 -1.184771
v -0.197792 2.719282 -1.184793
v -0.198686 2.720757 -1.184782
v -0.215376 2.712352 -1.200925
v -0.213794 2.709827 -1.200464
v -0.214543 2.711001 -1.200794
v -0.227846 2.703475 -1.198809
v -0.228168 2.703919 -1.199504
v -0.228047 2.703547 -1.199292
v -0.172605 2.737005 -1.204821
v -0.172961 2.737428 -1.205512
v -0.172655 2.737169 -1.205321
v -0.186345 2.729973 -1.204084
v -0.184762 2.727449 -1.203624
v -0.185511 2.728623 -1.203954
v -0.199262 2.718524 -1.202524
v -0.201050 2.721475 -1.202502
v -0.200156 2.720000 -1.202513
v -0.226997 2.704517 -1.185384
v -0.226734 2.704049 -1.185386
v -0.226894 2.704140 -1.185377
v -0.171493 2.737579 -1.191398
v -0.171787 2.738029 -1.191393
v -0.171500 2.737763 -1.191406
v -0.172771 2.737522 -1.203266
v -0.172477 2.737072 -1.203272
v -0.172484 2.737256 -1.203279
v -0.227981 2.704010 -1.197258
v -0.227718 2.703541 -1.197259
v -0.227878 2.703633 -1.197250
v -0.198408 2.718890 -1.184725
v -0.200210 2.721832 -1.184701
v -0.199306 2.720363 -1.184714
v -0.201680 2.721074 -1.202433
v -0.199877 2.718132 -1.202456
v -0.200776 2.719605 -1.202445
v -0.197200 2.719624 -1.184857
v -0.198975 2.722582 -1.184836
v -0.198091 2.721102 -1.184846
v -0.200445 2.721825 -1.202567
v -0.198670 2.718866 -1.202588
v -0.199560 2.720344 -1.202577
vn 0.0825 0.0426 0.9957
vn 0.2714 -0.2821 0.9202
vn 0.8922 0.3995 0.2105
vn 0.8310 0.5098 0.2225
vn -0.7470 -0.2602 -0.6118
vn -0.7316 -0.1025 -0.6740
vn -0.0776 -0.0524 -0.9956
vn -0.0568 -0.0877 -0.9945
vn 0.9180 -0.2841 0.2766
vn 0.8382 0.3323 0.4324
vn 0.9103 0.4001 -0.1061
vn 0.9539 -0.2811 -0.1055
vn -0.0825 -0.0426 -0.9957
vn 0.7796 0.4832 -0.3984
vn 0.8427 0.3740 -0.3874
vn 0.1184 -0.3610 -0.9250
vn -0.9761 -0.1979 0.0894
vn -0.9907 -0.1051 0.0866
vn -0.9761 -0.1979 0.0893
vn 0.9613 -0.2755 0.0016
vn 0.9154 0.3970 -0.0672
vn 0.7680 0.3042 -0.5636
vn 0.8739 -0.3144 -0.3708
vn -0.5184 0.8551 0.0064
vn -0.2965 0.3277 -0.8970
vn 0.8476 0.5226 -0.0926
vn 0.9094 0.4055 -0.0927
vn -0.7012 -0.5876 -0.4037
vn -0.0860 -0.0529 -0.9949
vn -0.0957 -0.0280 -0.9950
vn -0.8382 -0.4832 -0.2529
vn 0.5184 -0.8551 -0.0064
vn -0.7795 -0.6197 0.0911
vn -0.7684 -0.6039 -0.2120
vn 0.3123 0.5311 -0.7876
vn 0.4678 0.4771 -0.7440
vn -0.0542 -0.0862 -0.9948
vn -0.0761 -0.0514 -0.9958
vn 0.8473 0.5228 -0.0932
vn 0.7614 0.4877 -0.4270
vn -0.8547 -0.5107 0.0927
vn -0.8379 -0.4985 -0.2224
vn -0.0893 -0.0241 -0.9957
vn 0.0693 0.0571 0.9960
vn 0.0757 0.0610 0.9953
vn 0.8179 0.5168 0.2528
vn -0.1474 0.4046 0.9025
vn 0.0890 0.0337 0.9955
vn 0.4338 0.5938 0.6777
vn -0.6101 -0.0398 0.7913
vn 0.0874 0.0327 0.9956
vn -0.0718 -0.0443 -0.9964
vn -0.8550 -0.5105 0.0921
vn -0.7864 -0.4720 0.3985
vn -0.7819 -0.4543 0.4269
vn -0.8549 -0.5104 0.0930
vn 0.0933 0.0408 0.9948
vn 0.8474 0.5228 -0.0922
vn -0.7188 -0.5783 0.3859
vn -0.6004 -0.5409 0.5890
vn 0.0791 0.0323 0.9963
vn 0.1106 -0.0011 0.9939
vn 0.5804 0.5352 0.6138
vn -0.6345 -0.2022 0.7460
vn 0.5509 0.8306 -0.0812
vn 0.6264 0.7749 -0.0850
vn 0.6264 0.7748 -0.0851
vn -0.7773 -0.6243 0.0776
vn -0.7707 -0.6264 0.1164
vn -0.1976 -0.9801 0.0199
vn -0.1890 -0.9738 0.1268
vn -0.1743 -0.9507 -0.2567
vn -0.1187 -0.9134 0.3894
vn 0.1081 -0.0027 0.9941
vn -0.7741 -0.4344 0.4606
vn 0.1608 -0.1198 0.9797
vn 0.1877 -0.1035 0.9768
vn 0.8022 0.5224 0.2890
vn 0.0971 0.0078 0.9952
vn 0.1065 0.0134 0.9942
vn -0.8362 -0.4664 -0.2886
vn -0.0015 -0.2036 -0.9791
vn 0.0253 -0.1873 -0.9820
vn 0.7401 0.4904 -0.4601
vn -0.0678 -0.0773 -0.9947
vn -0.0584 -0.0716 -0.9957
vn -0.8442 -0.5279 0.0926
vn 0.8580 0.5053 -0.0929
vn -0.8442 -0.5280 0.0924
vn 0.8580 0.5053 -0.0926
vt 0.601355 0.749783
vt 0.600152 0.749615
vt 0.611308 0.713287
vt 0.612450 0.713207
vt 0.601138 0.753383
vt 0.599974 0.753414
vt 0.599984 0.751448
vt 0.601233 0.751525
vt 0.913336 0.909495
vt 0.836744 0.909659
vt 0.837702 0.888858
vt 0.882026 0.895953
vt 0.781739 0.686517
vt 0.764164 0.712986
vt 0.763224 0.709789
vt 0.782762 0.682581
vt 0.852674 0.734633
vt 0.812691 0.734017
vt 0.813222 0.732869
vt 0.852745 0.733372
vt 0.856544 0.735078
vt 0.854550 0.734842
vt 0.854705 0.733510
vt 0.856749 0.733794
vt 0.769290 0.846377
vt 0.780514 0.769434
vt 0.791569 0.771523
vt 0.775405 0.869504
vt 0.752117 0.887660
vt 0.787895 0.881419
vt 0.789318 0.882605
vt 0.754819 0.888268
vt 0.836759 0.911639
vt 0.833071 0.911580
vt 0.833248 0.909768
vt 0.810918 0.733051
vt 0.811900 0.731451
vt 0.916394 0.910682
vt 0.882335 0.894868
vt 0.837799 0.887772
vt 0.837919 0.886933
vt 0.881963 0.893426
vt 0.852865 0.731451
vt 0.854943 0.731721
vt 0.857043 0.732110
vt 0.898783 0.741579
vt 0.897437 0.742776
vt 0.830117 0.908853
vt 0.755224 0.888817
vt 0.789337 0.883743
vt 0.834312 0.888425
vt 0.788509 0.880653
vt 0.790053 0.881302
vt 0.899580 0.743398
vt 0.897562 0.743976
vt 0.836202 0.886690
vt 0.834591 0.886507
vt 0.754055 0.764776
vt 0.754180 0.762936
vt 0.754353 0.761215
vt 0.762630 0.713333
vt 0.778321 0.765047
vt 0.756242 0.763116
vt 0.756418 0.761414
vt 0.777940 0.761582
vt 0.777279 0.768635
vt 0.756111 0.764938
vt 0.835952 0.888635
vt 0.834493 0.887349
vt 0.883619 0.893198
vt 0.606678 0.789214
vt 0.753690 0.812913
vt 0.752438 0.815729
vt 0.605136 0.791838
vt 0.755261 0.761319
vt 0.611289 0.710392
vt 0.761890 0.710351
vt 0.605535 0.788866
vt 0.603876 0.790938
vt 0.755138 0.813526
vt 0.754961 0.764828
vt 0.765218 0.713367
vt 0.782047 0.687043
vt 0.597064 0.753408
vt 0.597237 0.751256
vt 0.597471 0.749284
vt 0.768152 0.841996
vt 0.609779 0.711301
vt 0.781319 0.765624
vt 0.746257 0.824097
vt 0.598242 0.799800
vt 0.757254 0.701269
vt 0.758579 0.700589
vt 0.604449 0.700934
vt 0.596985 0.798696
vt 0.781247 0.761424
vt 0.783868 0.682983
vt 0.792248 0.662122
vt 0.791707 0.761295
vt 0.587553 0.752669
vt 0.587713 0.750422
vt 0.587907 0.748328
vt 0.753668 0.816525
vt 0.747496 0.825029
vt 0.791083 0.661658
vt 0.602956 0.702026
vt 0.792248 0.767443
vt 0.768103 0.846625
vt 0.774107 0.869831
vt 0.884011 0.894097
vt 0.916600 0.909181
vt 0.913864 0.909073
vt 0.829578 0.910841
vt 0.751927 0.889181
vt 0.767759 0.842464
vt 0.781365 0.764942
vt 0.791713 0.764900
vt 0.836090 0.887564
vt 0.755113 0.763017
vt 0.756239 0.813340
vt 0.768025 0.842188
vt 0.755667 0.813439
vt 0.764670 0.713167
vt 0.781953 0.686832
vt 0.755503 0.764877
vt 0.755676 0.763066
vt 0.755808 0.761365
vt 0.913555 0.909365
vt 0.882189 0.895389
vt 0.789325 0.883152
vt 0.755045 0.888634
vt 0.837749 0.888281
vt 0.836022 0.888095
vt 0.834412 0.887854
vt 0.768574 0.846534
vt 0.752001 0.888242
vt 0.774671 0.869690
vt 0.783200 0.682732
vt 0.791591 0.661860
vt 0.916562 0.909767
s 1
f 58/1/1 54/2/2 2/3/3 9/4/4
f 46/5/1 41/6/2 4/7/2 10/8/1
f 84/9/5 44/10/6 110/11/7 80/12/8
f 68/13/9 75/14/10 23/15/11 98/16/12
f 57/17/13 12/18/14 6/19/15 56/20/16
f 45/21/13 13/22/13 7/23/16 43/24/16
f 95/25/17 50/26/18 52/27/18 104/28/19
f 102/29/20 38/30/21 90/31/22 86/32/23
f 52/33/18 31/34/24 5/35/25 44/10/6
f 35/36/26 32/37/27 6/19/15 12/18/14
f 104/38/19 52/33/18 44/10/6 84/9/5
f 81/39/28 111/40/29 48/41/30 16/42/31
f 64/43/32 33/44/32 7/23/16 56/20/16
f 51/45/32 40/46/33 8/47/34 43/24/16
f 55/48/35 87/49/36 89/50/37 116/51/38
f 38/30/21 36/52/39 19/53/40 90/31/22
f 40/46/33 34/54/41 14/55/42 8/47/34
f 36/52/39 35/36/26 12/18/14 19/53/40
f 48/41/30 20/56/13 13/22/13 45/21/13
f 60/57/43 19/53/40 12/18/14 57/17/13
f 47/58/44 46/5/1 10/8/1 18/59/1
f 59/60/45 58/1/1 9/4/4 17/61/46
f 3/62/47 77/63/1 114/64/48 53/65/49
f 42/66/50 108/67/51 77/63/1 3/62/47
f 5/35/25 55/48/35 116/51/38 93/68/13
f 44/10/6 5/35/25 93/68/13 110/11/7
f 117/69/52 90/31/22 19/53/40 60/57/43
f 34/54/41 37/70/53 16/42/31 14/55/42
f 11/71/54 15/72/55 30/73/56 27/74/41
f 113/75/57 59/60/45 17/61/46 75/14/10
f 17/61/46 9/4/4 28/76/26 29/77/58
f 1/78/59 11/71/54 27/74/41 25/79/33
f 71/80/60 15/72/55 47/58/44 107/81/61
f 53/65/49 114/64/48 74/82/62 69/83/63
f 41/6/2 1/78/59 25/79/33 49/84/32
f 54/2/2 4/7/2 26/85/32 62/86/32
f 75/14/10 17/61/46 29/77/58 23/15/11
f 65/87/64 42/66/50 50/26/18 95/25/17
f 9/4/4 2/3/3 22/88/27 28/76/26
f 42/66/50 3/62/47 21/89/24 50/26/18
f 27/74/41 30/73/56 37/90/53 34/91/41
f 23/15/11 29/77/58 36/92/39 38/93/21
f 29/77/58 28/76/26 35/94/26 36/92/39
f 25/79/33 27/74/41 34/91/41 40/95/33
f 61/96/65 99/97/66 101/98/67 63/99/65
f 49/84/32 25/79/33 40/95/33 51/100/32
f 62/86/32 26/85/32 33/101/32 64/102/32
f 30/73/56 24/103/68 39/104/69 37/90/53
f 98/16/12 23/15/11 38/93/21 102/105/20
f 28/76/26 22/88/27 32/106/27 35/94/26
f 50/26/18 21/89/24 31/107/24 52/27/18
f 24/103/68 96/108/70 105/109/71 39/104/69
f 26/85/32 49/84/32 51/100/32 33/101/32
f 53/65/49 69/83/63 99/97/66 61/96/65
f 4/7/2 41/6/2 49/84/32 26/85/32
f 39/110/69 105/111/71 83/112/72 81/39/28
f 15/72/55 71/80/60 24/103/68 30/73/56
f 15/72/55 11/71/54 46/5/1 47/58/44
f 16/42/31 48/41/30 45/21/13 14/55/42
f 33/44/32 51/45/32 43/24/16 7/23/16
f 63/113/65 101/114/67 87/49/36 55/48/35
f 37/70/53 39/110/69 81/39/28 16/42/31
f 14/55/42 45/21/13 43/24/16 8/47/34
f 71/80/60 66/115/73 96/108/70 24/103/68
f 11/71/54 1/78/59 41/6/2 46/5/1
f 22/88/27 62/86/32 64/102/32 32/106/27
f 21/116/24 61/96/65 63/99/65 31/117/24
f 2/3/3 54/2/2 62/86/32 22/88/27
f 3/62/47 53/65/49 61/96/65 21/116/24
f 111/40/29 92/118/13 20/56/13 48/41/30
f 107/81/61 47/58/44 18/59/1 78/119/1
f 18/59/1 10/8/1 58/1/1 59/60/45
f 20/56/13 60/57/43 57/17/13 13/22/13
f 31/34/24 63/113/65 55/48/35 5/35/25
f 32/37/27 64/43/32 56/20/16 6/19/15
f 92/118/13 117/69/52 60/57/43 20/56/13
f 13/22/13 57/17/13 56/20/16 7/23/16
f 78/119/1 18/59/1 59/60/45 113/75/57
f 10/8/1 4/7/2 54/2/2 58/1/1
f 72/120/74 65/87/64 67/121/75 73/122/76
f 73/122/76 67/121/75 66/115/73 71/80/60
f 69/83/63 74/82/62 76/123/77 70/124/78
f 70/124/78 76/123/77 75/14/10 68/13/9
f 108/67/51 72/120/74 73/122/76 109/125/79
f 109/125/79 73/122/76 71/80/60 107/81/61
f 114/64/48 77/63/1 79/126/1 115/127/80
f 115/127/80 79/126/1 78/119/1 113/75/57
f 81/39/28 83/112/72 85/128/81 82/129/82
f 82/129/82 85/128/81 84/9/5 80/12/8
f 86/32/23 90/31/22 91/130/83 88/131/84
f 88/131/84 91/130/83 89/50/37 87/49/36
f 111/40/29 81/39/28 82/129/82 112/132/85
f 112/132/85 82/129/82 80/12/8 110/11/7
f 117/69/52 92/118/13 94/133/13 118/134/86
f 118/134/86 94/133/13 93/68/13 116/51/38
f 96/108/70 66/115/73 67/121/75 97/135/87
f 97/135/87 67/121/75 65/87/64 95/25/17
f 102/29/20 86/32/23 88/131/84 103/136/88
f 103/136/88 88/131/84 87/49/36 101/114/67
f 105/109/71 96/108/70 97/135/87 106/137/89
f 106/137/89 97/135/87 95/25/17 104/28/19
f 68/13/9 98/16/12 100/138/90 70/124/78
f 70/124/78 100/138/90 99/97/66 69/83/63
f 98/16/12 102/105/20 103/139/88 100/138/90
f 100/138/90 103/139/88 101/98/67 99/97/66
f 83/112/72 105/111/71 106/140/89 85/128/81
f 85/128/81 106/140/89 104/38/19 84/9/5
f 77/63/1 108/67/51 109/125/79 79/126/1
f 79/126/1 109/125/79 107/81/61 78/119/1
f 92/118/13 111/40/29 112/132/85 94/133/13
f 94/133/13 112/132/85 110/11/7 93/68/13
f 74/82/62 114/64/48 115/127/80 76/123/77
f 76/123/77 115/127/80 113/75/57 75/14/10
f 90/31/22 117/69/52 118/134/86 91/130/83
f 91/130/83 118/134/86 116/51/38 89/50/37
f 65/87/64 72/120/74 108/67/51 42/66/50
